<svg id="svg" version="1.1" xmlns="http://www.w3.org/2000/svg" xmlns:xlink="http://www.w3.org/1999/xlink" width="400" height="266.69921875" viewBox="0, 0, 400,266.69921875"><g id="svgg"><path id="path0" d="M133.333 100.083 L 100.084 133.333 133.375 166.625 L 166.666 199.916 183.250 183.333 C 192.371 174.213,199.811 166.684,199.784 166.603 C 199.757 166.522,192.277 159.002,183.162 149.892 L 166.589 133.328 183.253 116.664 L 199.916 100.000 183.333 83.417 C 174.213 74.296,166.713 66.833,166.667 66.833 C 166.621 66.833,151.621 81.796,133.333 100.083 M216.667 83.417 L 200.084 100.000 216.750 116.667 L 233.416 133.333 216.750 150.000 L 200.084 166.667 216.709 183.292 L 233.333 199.917 266.625 166.625 L 299.916 133.333 266.667 100.083 C 248.379 81.796,233.379 66.833,233.333 66.833 C 233.287 66.833,225.787 74.296,216.667 83.417 " stroke="none" fill="#fbc30c" fill-rule="evenodd"></path><path id="path1" d="M49.913 83.236 C 22.461 110.683,0.000 133.226,0.000 133.332 C 0.000 133.558,99.786 233.333,100.013 233.333 C 100.097 233.333,103.889 229.612,108.440 225.065 L 116.712 216.796 74.981 175.065 L 33.250 133.333 74.984 91.599 L 116.718 49.865 108.450 41.599 C 103.903 37.053,100.102 33.333,100.004 33.333 C 99.906 33.333,77.365 55.790,49.913 83.236 M291.557 41.602 L 283.288 49.872 325.019 91.602 L 366.750 133.333 325.026 175.057 L 283.303 216.780 291.580 225.057 C 296.132 229.609,299.927 233.333,300.014 233.333 C 300.248 233.333,400.000 133.562,400.000 133.328 C 400.000 133.079,300.253 33.333,300.004 33.333 C 299.906 33.333,296.104 37.054,291.557 41.602 " stroke="none" fill="#049344" fill-rule="evenodd"></path><path id="path2" d="M174.936 24.949 L 149.982 49.898 158.324 58.240 L 166.667 66.583 183.333 49.917 L 200.000 33.251 216.667 49.917 L 233.333 66.583 241.679 58.237 L 250.025 49.891 225.072 24.946 C 211.348 11.226,200.068 0.000,200.005 0.000 C 199.941 0.000,188.660 11.227,174.936 24.949 M158.291 208.292 C 153.731 212.853,150.000 216.633,150.000 216.693 C 150.000 216.845,199.855 266.667,200.007 266.667 C 200.164 266.667,250.000 216.854,250.000 216.697 C 250.000 216.634,246.250 212.833,241.667 208.250 L 233.333 199.918 216.667 216.583 L 200.000 233.249 183.375 216.625 C 174.231 207.481,166.712 200.000,166.666 200.000 C 166.620 200.000,162.851 203.732,158.291 208.292 " stroke="none" fill="#f31014" fill-rule="evenodd"></path><path id="path3" d="M124.917 41.600 C 120.425 46.141,98.059 68.582,75.214 91.469 C 52.369 114.357,33.626 133.138,33.564 133.205 C 33.469 133.307,133.002 233.157,133.339 233.298 C 133.468 233.352,150.000 216.884,150.000 216.702 C 150.000 216.637,153.731 212.853,158.291 208.292 L 166.583 200.000 133.250 166.666 L 99.917 133.333 133.292 99.958 L 166.666 66.584 183.333 83.250 L 200.000 99.916 216.667 83.250 L 233.334 66.584 266.708 99.958 L 300.083 133.333 266.750 166.666 L 233.417 200.000 241.709 208.292 C 246.269 212.853,250.000 216.632,250.000 216.691 C 250.000 216.860,266.548 233.346,266.668 233.296 C 267.413 232.980,366.506 133.290,366.312 133.051 C 366.186 132.895,347.446 114.113,324.667 91.312 C 301.887 68.511,279.575 46.140,275.083 41.599 C 270.592 37.058,266.832 33.340,266.728 33.338 C 266.624 33.335,259.069 40.815,249.938 49.958 L 233.338 66.583 216.669 49.917 L 200.000 33.251 183.330 49.917 L 166.661 66.583 150.068 49.958 C 140.942 40.815,133.387 33.336,133.279 33.339 C 133.171 33.342,129.408 37.060,124.917 41.600 M183.333 116.750 L 166.750 133.334 183.375 149.958 L 200.000 166.583 216.625 149.958 L 233.250 133.334 216.667 116.750 C 207.546 107.629,200.046 100.167,200.000 100.167 C 199.954 100.167,192.454 107.629,183.333 116.750 M183.333 183.417 L 166.750 200.000 183.375 216.625 L 200.000 233.250 216.583 216.667 C 225.704 207.546,233.167 200.043,233.167 199.993 C 233.167 199.879,200.212 166.932,200.041 166.875 C 199.972 166.852,192.454 174.296,183.333 183.417 " stroke="none" fill="#040c9b" fill-rule="evenodd"></path><path id="path4" d="M263.740 36.042 L 263.250 36.583 263.792 36.094 C 264.297 35.638,264.410 35.500,264.281 35.500 C 264.252 35.500,264.009 35.744,263.740 36.042 M262.573 37.208 L 262.083 37.750 262.625 37.260 C 263.130 36.804,263.243 36.667,263.115 36.667 C 263.086 36.667,262.842 36.910,262.573 37.208 M238.500 38.385 C 238.500 38.414,238.744 38.658,239.042 38.927 L 239.583 39.417 239.094 38.875 C 238.638 38.370,238.500 38.257,238.500 38.385 M260.906 38.875 L 260.417 39.417 260.958 38.927 C 261.463 38.471,261.577 38.333,261.448 38.333 C 261.419 38.333,261.175 38.577,260.906 38.875 M259.740 40.042 L 259.250 40.583 259.792 40.094 C 260.297 39.638,260.410 39.500,260.281 39.500 C 260.252 39.500,260.009 39.744,259.740 40.042 M256.906 42.875 L 256.417 43.417 256.958 42.927 C 257.463 42.471,257.577 42.333,257.448 42.333 C 257.419 42.333,257.175 42.577,256.906 42.875 M254.073 45.708 L 253.583 46.250 254.125 45.760 C 254.630 45.304,254.743 45.167,254.615 45.167 C 254.586 45.167,254.342 45.410,254.073 45.708 M251.240 48.542 L 250.750 49.083 251.292 48.594 C 251.797 48.138,251.910 48.000,251.781 48.000 C 251.752 48.000,251.509 48.244,251.240 48.542 M78.583 88.042 L 40.583 126.083 78.625 88.083 C 113.994 52.753,116.741 50.000,116.625 50.000 C 116.602 50.000,99.483 67.119,78.583 88.042 M297.083 63.833 C 304.691 71.442,310.953 77.667,310.999 77.667 C 311.045 77.667,304.858 71.442,297.250 63.833 C 289.642 56.225,283.380 50.000,283.334 50.000 C 283.288 50.000,289.475 56.225,297.083 63.833 M133.250 100.000 L 99.917 133.333 133.292 166.708 L 166.666 200.083 183.333 183.417 L 199.999 166.751 205.791 172.501 L 211.583 178.250 205.834 172.458 L 200.085 166.666 216.750 150.000 L 233.416 133.333 216.750 116.667 L 200.084 100.000 216.709 83.375 L 233.333 66.750 266.625 100.042 L 299.917 133.333 266.629 166.620 L 233.342 199.908 232.713 199.332 L 232.083 198.756 232.710 199.418 L 233.336 200.081 266.710 166.707 L 300.083 133.333 266.708 99.959 L 233.334 66.584 216.667 83.250 L 200.000 99.916 183.375 83.291 C 174.231 74.148,166.712 66.667,166.666 66.667 C 166.620 66.667,151.583 81.667,133.250 100.000 M183.333 83.417 L 199.916 100.000 183.250 116.666 L 166.584 133.333 168.916 135.625 L 171.248 137.917 169.000 135.624 L 166.752 133.331 183.376 116.707 L 200.000 100.084 216.625 116.708 L 233.250 133.333 216.631 149.952 L 200.013 166.570 199.548 166.160 L 199.083 165.750 199.493 166.215 L 199.904 166.680 183.285 183.298 L 166.667 199.917 133.375 166.625 L 100.084 133.333 133.333 100.083 C 151.621 81.796,166.621 66.833,166.667 66.833 C 166.713 66.833,174.213 74.296,183.333 83.417 M311.667 78.385 C 311.667 78.414,311.910 78.658,312.208 78.927 L 312.750 79.417 312.260 78.875 C 311.804 78.370,311.667 78.257,311.667 78.385 M313.833 80.552 C 313.833 80.581,314.077 80.825,314.375 81.094 L 314.917 81.583 314.427 81.042 C 313.971 80.537,313.833 80.423,313.833 80.552 M317.750 84.500 C 319.306 86.058,320.617 87.333,320.663 87.333 C 320.709 87.333,319.473 86.058,317.917 84.500 C 316.360 82.942,315.050 81.667,315.004 81.667 C 314.958 81.667,316.194 82.942,317.750 84.500 M321.333 88.052 C 321.333 88.081,321.577 88.325,321.875 88.594 L 322.417 89.083 321.927 88.542 C 321.471 88.037,321.333 87.923,321.333 88.052 M326.333 93.052 C 326.333 93.081,326.577 93.325,326.875 93.594 L 327.417 94.083 326.927 93.542 C 326.471 93.037,326.333 92.923,326.333 93.052 M328.833 95.583 C 329.608 96.362,330.280 97.000,330.326 97.000 C 330.372 97.000,329.775 96.362,329.000 95.583 C 328.225 94.804,327.553 94.167,327.507 94.167 C 327.462 94.167,328.058 94.804,328.833 95.583 M331.000 97.719 C 331.000 97.748,331.244 97.991,331.542 98.260 L 332.083 98.750 331.594 98.208 C 331.138 97.703,331.000 97.590,331.000 97.719 M338.833 105.552 C 338.833 105.581,339.077 105.825,339.375 106.094 L 339.917 106.583 339.427 106.042 C 338.971 105.537,338.833 105.423,338.833 105.552 M340.826 107.542 C 341.517 108.278,341.667 108.410,341.667 108.285 C 341.667 108.258,341.310 107.902,340.875 107.493 L 340.083 106.750 340.826 107.542 M39.667 126.917 C 39.262 127.329,38.968 127.667,39.014 127.667 C 39.060 127.667,39.428 127.329,39.833 126.917 C 40.238 126.504,40.532 126.167,40.486 126.167 C 40.440 126.167,40.072 126.504,39.667 126.917 M37.740 128.875 L 37.250 129.417 37.792 128.927 C 38.297 128.471,38.410 128.333,38.281 128.333 C 38.252 128.333,38.009 128.577,37.740 128.875 M35.833 130.750 C 35.428 131.162,35.135 131.500,35.181 131.500 C 35.226 131.500,35.595 131.162,36.000 130.750 C 36.405 130.337,36.699 130.000,36.653 130.000 C 36.607 130.000,36.238 130.337,35.833 130.750 M34.080 132.503 L 33.256 133.340 75.003 175.045 L 116.750 216.750 75.087 175.045 L 33.423 133.340 34.247 132.503 C 34.700 132.043,35.033 131.667,34.987 131.667 C 34.942 131.667,34.533 132.043,34.080 132.503 M366.331 133.053 C 366.541 133.331,363.042 136.878,324.905 175.053 L 283.250 216.750 324.997 175.045 C 365.600 134.482,366.735 133.331,366.423 133.045 C 366.115 132.762,366.111 132.762,366.331 133.053 M171.333 138.052 C 171.333 138.081,171.577 138.325,171.875 138.594 L 172.417 139.083 171.927 138.542 C 171.471 138.037,171.333 137.923,171.333 138.052 M173.000 139.719 C 173.000 139.748,173.244 139.991,173.542 140.260 L 174.083 140.750 173.594 140.208 C 173.138 139.703,173.000 139.590,173.000 139.719 M174.167 140.885 C 174.167 140.914,174.410 141.158,174.708 141.427 L 175.250 141.917 174.760 141.375 C 174.304 140.870,174.167 140.757,174.167 140.885 M178.250 145.000 C 179.623 146.375,180.783 147.500,180.829 147.500 C 180.875 147.500,179.789 146.375,178.417 145.000 C 177.044 143.625,175.883 142.500,175.838 142.500 C 175.792 142.500,176.877 143.625,178.250 145.000 M181.000 147.719 C 181.000 147.748,181.244 147.991,181.542 148.260 L 182.083 148.750 181.594 148.208 C 181.138 147.703,181.000 147.590,181.000 147.719 M182.667 149.385 C 182.667 149.414,182.910 149.658,183.208 149.927 L 183.750 150.417 183.260 149.875 C 182.804 149.370,182.667 149.257,182.667 149.385 M183.833 150.552 C 183.833 150.581,184.077 150.825,184.375 151.094 L 184.917 151.583 184.427 151.042 C 183.971 150.537,183.833 150.423,183.833 150.552 M185.500 152.219 C 185.500 152.248,185.744 152.491,186.042 152.760 L 186.583 153.250 186.094 152.708 C 185.638 152.203,185.500 152.090,185.500 152.219 M186.667 153.385 C 186.667 153.414,186.910 153.658,187.208 153.927 L 187.750 154.417 187.260 153.875 C 186.804 153.370,186.667 153.257,186.667 153.385 M189.917 156.667 C 190.830 157.583,191.615 158.333,191.660 158.333 C 191.706 158.333,190.997 157.583,190.083 156.667 C 189.170 155.750,188.385 155.000,188.340 155.000 C 188.294 155.000,189.003 155.750,189.917 156.667 M192.333 159.052 C 192.333 159.081,192.577 159.325,192.875 159.594 L 193.417 160.083 192.927 159.542 C 192.471 159.037,192.333 158.923,192.333 159.052 M193.500 160.219 C 193.500 160.248,193.744 160.491,194.042 160.760 L 194.583 161.250 194.094 160.708 C 193.638 160.203,193.500 160.090,193.500 160.219 M195.167 161.885 C 195.167 161.914,195.410 162.158,195.708 162.427 L 196.250 162.917 195.760 162.375 C 195.304 161.870,195.167 161.757,195.167 161.885 M196.333 163.052 C 196.333 163.081,196.577 163.325,196.875 163.594 L 197.417 164.083 196.927 163.542 C 196.471 163.037,196.333 162.923,196.333 163.052 M198.000 164.719 C 198.000 164.748,198.244 164.991,198.542 165.260 L 199.083 165.750 198.594 165.208 C 198.138 164.703,198.000 164.590,198.000 164.719 M211.667 178.385 C 211.667 178.414,211.910 178.658,212.208 178.927 L 212.750 179.417 212.260 178.875 C 211.804 178.370,211.667 178.257,211.667 178.385 M216.917 183.667 C 219.207 185.958,221.118 187.833,221.164 187.833 C 221.210 187.833,219.374 185.958,217.083 183.667 C 214.793 181.375,212.882 179.500,212.836 179.500 C 212.790 179.500,214.626 181.375,216.917 183.667 M221.333 188.052 C 221.333 188.081,221.577 188.325,221.875 188.594 L 222.417 189.083 221.927 188.542 C 221.471 188.037,221.333 187.923,221.333 188.052 M223.160 189.875 C 223.850 190.611,224.000 190.743,224.000 190.618 C 224.000 190.591,223.644 190.235,223.208 189.826 L 222.417 189.083 223.160 189.875 M224.167 190.885 C 224.167 190.914,224.410 191.158,224.708 191.427 L 225.250 191.917 224.760 191.375 C 224.304 190.870,224.167 190.757,224.167 190.885 M228.000 194.750 C 229.510 196.262,230.784 197.500,230.830 197.500 C 230.875 197.500,229.677 196.262,228.167 194.750 C 226.656 193.237,225.383 192.000,225.337 192.000 C 225.291 192.000,226.490 193.237,228.000 194.750 M231.000 197.719 C 231.000 197.748,231.244 197.991,231.542 198.260 L 232.083 198.750 231.594 198.208 C 231.138 197.703,231.000 197.590,231.000 197.719 " stroke="none" fill="#046464" fill-rule="evenodd"></path></g></svg>